<svg width="180" height="36" viewBox="0 0 180 36" fill="none" xmlns="http://www.w3.org/2000/svg">
<path d="M109.196 26.88C107.212 26.88 105.26 26.3147 103.34 25.184L100.62 26.56H99.916V18.336H100.62L103.372 24.288C105.143 25.5467 107.169 26.176 109.452 26.176C111.329 26.176 112.876 25.6853 114.092 24.704C115.329 23.7013 115.948 22.304 115.948 20.512C115.948 19.2107 115.553 18.1867 114.764 17.44C113.975 16.672 112.695 16.064 110.924 15.616L105.612 14.24C103.756 13.7493 102.359 12.9173 101.42 11.744C100.481 10.5493 100.012 9.14133 100.012 7.52C100.012 6.048 100.3 4.74667 100.876 3.616C101.473 2.464 102.337 1.57867 103.468 0.960001C104.599 0.32 105.943 0 107.5 0C109.441 0 111.18 0.330667 112.716 0.992001L115.052 0H115.756V6.528H115.052L112.748 1.856C111.148 1.088 109.409 0.704 107.532 0.704C105.676 0.704 104.215 1.184 103.148 2.144C102.081 3.08267 101.548 4.33067 101.548 5.888C101.548 7.04 101.921 7.94667 102.668 8.608C103.436 9.26933 104.556 9.792 106.028 10.176L111.756 11.68C113.612 12.1493 114.988 12.96 115.884 14.112C116.801 15.2427 117.26 16.9707 117.26 19.296C117.26 21.664 116.524 23.52 115.052 24.864C113.601 26.208 111.649 26.88 109.196 26.88Z" fill="#303030"/>
<path d="M126.573 26.56C125.165 26.56 124.034 26.208 123.181 25.504C122.349 24.8 121.933 23.68 121.933 22.144V10.624L119.661 10.304V9.664H121.933V7.008L125.133 6.208V9.664H129.293V10.304L125.133 10.624V22.08C125.133 24.3413 125.943 25.472 127.565 25.472C127.906 25.472 128.226 25.4187 128.525 25.312C128.845 25.2053 129.09 25.0987 129.261 24.992C129.453 24.8853 129.57 24.8107 129.613 24.768L130.029 25.28C129.069 26.1333 127.917 26.56 126.573 26.56Z" fill="#303030"/>
<path d="M138.874 26.56C137.338 26.56 135.94 26.208 134.682 25.504C133.423 24.7787 132.42 23.7653 131.674 22.464C130.948 21.1413 130.586 19.6373 130.586 17.952C130.586 16.2667 130.948 14.7733 131.674 13.472C132.42 12.1707 133.423 11.168 134.682 10.464C135.94 9.73867 137.338 9.376 138.874 9.376C140.41 9.376 141.807 9.73867 143.066 10.464C144.324 11.168 145.316 12.1707 146.042 13.472C146.788 14.7733 147.162 16.2667 147.162 17.952C147.162 19.6373 146.788 21.1413 146.042 22.464C145.316 23.7653 144.324 24.7787 143.066 25.504C141.807 26.208 140.41 26.56 138.874 26.56ZM138.874 25.856C140.452 25.856 141.636 25.28 142.426 24.128C143.236 22.976 143.642 21.4507 143.642 19.552V16.352C143.642 14.4533 143.236 12.9387 142.426 11.808C141.636 10.656 140.452 10.08 138.874 10.08C137.295 10.08 136.1 10.656 135.29 11.808C134.5 12.9387 134.106 14.4533 134.106 16.352V19.552C134.106 21.4507 134.5 22.976 135.29 24.128C136.1 25.28 137.295 25.856 138.874 25.856Z" fill="#303030"/>
<path d="M149.386 25.6L151.626 25.28V10.624L149.386 10.304V9.664H154.826V12.128C156.17 10.2933 157.685 9.376 159.37 9.376C160.181 9.376 160.895 9.58933 161.514 10.016C162.133 10.4213 162.442 11.008 162.442 11.776C162.442 12.3307 162.261 12.8 161.898 13.184C161.535 13.5467 161.055 13.728 160.458 13.728C159.775 13.728 159.221 13.4613 158.794 12.928C159.029 12.6293 159.146 12.3093 159.146 11.968C159.146 11.6053 159.018 11.3173 158.762 11.104C158.527 10.8693 158.207 10.752 157.802 10.752C157.354 10.752 156.895 10.9653 156.426 11.392C155.957 11.7973 155.423 12.4373 154.826 13.312V25.28L157.386 25.6V26.24H149.386V25.6Z" fill="#303030"/>
<path d="M172.19 26.56C170.611 26.56 169.182 26.208 167.902 25.504C166.622 24.7787 165.608 23.7653 164.862 22.464C164.115 21.1627 163.742 19.6587 163.742 17.952C163.742 16.2453 164.104 14.752 164.83 13.472C165.576 12.1707 166.568 11.168 167.806 10.464C169.064 9.73867 170.462 9.376 171.998 9.376C173.342 9.376 174.547 9.67467 175.614 10.272C176.68 10.8693 177.512 11.7013 178.11 12.768C178.707 13.8133 179.016 15.0187 179.038 16.384H167.262V19.552C167.262 21.4293 167.678 22.9547 168.51 24.128C169.363 25.28 170.59 25.856 172.19 25.856C173.662 25.856 174.963 25.44 176.094 24.608C177.224 23.776 177.918 22.6987 178.174 21.376H178.91C178.611 22.9547 177.854 24.2133 176.638 25.152C175.422 26.0907 173.939 26.56 172.19 26.56ZM175.518 15.584C175.518 13.728 175.23 12.352 174.654 11.456C174.078 10.5387 173.182 10.08 171.966 10.08C170.536 10.08 169.427 10.5813 168.638 11.584C167.848 12.5867 167.4 13.92 167.294 15.584H175.518Z" fill="#303030"/>
<path d="M11.584 26.88C9.25867 26.88 7.22133 26.3147 5.472 25.184C3.72267 24.0533 2.368 22.4747 1.408 20.448C0.469333 18.4213 0 16.0853 0 13.44C0 10.7947 0.501333 8.45867 1.504 6.432C2.50667 4.40533 3.904 2.82667 5.696 1.696C7.50933 0.565334 9.57867 0 11.904 0C14.1013 0 15.9573 0.554667 17.472 1.664L19.424 0H20.096V7.936H19.424L17.312 2.656C15.776 1.376 13.9733 0.736 11.904 0.736C10.4107 0.736 9.06667 1.12 7.872 1.888C6.69867 2.656 5.77067 3.776 5.088 5.248C4.42667 6.72 4.096 8.46933 4.096 10.496V16.352C4.096 18.3787 4.40533 20.128 5.024 21.6C5.664 23.072 6.53867 24.2027 7.648 24.992C8.77867 25.76 10.0907 26.144 11.584 26.144C13.4187 26.144 14.8373 25.5787 15.84 24.448C16.864 23.3173 17.376 21.8027 17.376 19.904V16.928L14.4 16.48V15.776H23.968V16.48L20.992 16.928V19.904C20.992 21.12 20.6613 22.2613 20 23.328C19.3387 24.3733 18.304 25.2267 16.896 25.888C15.488 26.5493 13.7173 26.88 11.584 26.88Z" fill="#E1A561"/>
<path d="M33.6548 26.56C32.1188 26.56 30.7214 26.208 29.4627 25.504C28.2041 24.7787 27.2014 23.7653 26.4548 22.464C25.7294 21.1413 25.3668 19.6373 25.3668 17.952C25.3668 16.2667 25.7294 14.7733 26.4548 13.472C27.2014 12.1707 28.2041 11.168 29.4627 10.464C30.7214 9.73867 32.1188 9.376 33.6548 9.376C35.1908 9.376 36.5881 9.73867 37.8468 10.464C39.1054 11.168 40.0974 12.1707 40.8228 13.472C41.5694 14.7733 41.9428 16.2667 41.9428 17.952C41.9428 19.6373 41.5694 21.1413 40.8228 22.464C40.0974 23.7653 39.1054 24.7787 37.8468 25.504C36.5881 26.208 35.1908 26.56 33.6548 26.56ZM33.6548 25.856C35.2334 25.856 36.4174 25.28 37.2067 24.128C38.0174 22.976 38.4228 21.4507 38.4228 19.552V16.352C38.4228 14.4533 38.0174 12.9387 37.2067 11.808C36.4174 10.656 35.2334 10.08 33.6548 10.08C32.0761 10.08 30.8814 10.656 30.0708 11.808C29.2814 12.9387 28.8868 14.4533 28.8868 16.352V19.552C28.8868 21.4507 29.2814 22.976 30.0708 24.128C30.8814 25.28 32.0761 25.856 33.6548 25.856Z" fill="#E1A561"/>
<path d="M43.9432 26.24V25.6L46.3433 25.28V1.6L43.9432 1.28V0.640001H49.5433V25.28L51.7832 25.6V26.24H43.9432Z" fill="#E1A561"/>
<path d="M61.4835 26.56C59.9688 26.56 58.6355 26.208 57.4835 25.504C56.3315 24.7787 55.4355 23.776 54.7955 22.496C54.1555 21.1947 53.8355 19.68 53.8355 17.952C53.8355 16.224 54.1555 14.72 54.7955 13.44C55.4355 12.1387 56.3315 11.136 57.4835 10.432C58.6355 9.728 59.9688 9.376 61.4835 9.376C62.7208 9.376 63.7982 9.70667 64.7155 10.368C65.6328 11.008 66.3582 11.8933 66.8915 13.024V1.6L64.6515 1.28V0.640001H70.0915V25.28L72.3315 25.6V26.24H66.8915V22.912C66.3582 24.0427 65.6328 24.9387 64.7155 25.6C63.7982 26.24 62.7208 26.56 61.4835 26.56ZM61.8035 25.76C62.7422 25.76 63.5848 25.4933 64.3315 24.96C65.0995 24.4053 65.7075 23.68 66.1555 22.784C66.6248 21.8667 66.8702 20.8747 66.8915 19.808V16.128C66.8702 15.0613 66.6248 14.08 66.1555 13.184C65.7075 12.2667 65.0995 11.5413 64.3315 11.008C63.5848 10.4533 62.7422 10.176 61.8035 10.176C58.8382 10.176 57.3555 12.2347 57.3555 16.352V19.552C57.3555 23.6907 58.8382 25.76 61.8035 25.76Z" fill="#E1A561"/>
<path d="M76.7667 35.584C75.6574 35.584 74.7614 35.3067 74.0788 34.752C73.3961 34.1973 73.0547 33.4507 73.0547 32.512C73.0547 31.872 73.2361 31.3493 73.5987 30.944C73.9827 30.56 74.4521 30.368 75.0068 30.368C75.4121 30.368 75.7747 30.4533 76.0947 30.624C76.4147 30.7947 76.6707 31.0507 76.8627 31.392C76.5427 31.84 76.3828 32.3093 76.3828 32.8C76.3828 33.2267 76.5214 33.5787 76.7988 33.856C77.0761 34.1333 77.4281 34.272 77.8548 34.272C78.3668 34.272 78.8041 34.1013 79.1667 33.76C79.5507 33.4187 79.8921 32.8213 80.1908 31.968L82.1107 26.464L74.6868 10.656L72.5427 10.336V9.696H80.5107V10.336L78.2708 10.72L83.6148 22.144L87.4228 11.136L84.6708 10.336V9.696H90.4307V10.336L88.2548 11.136L81.0868 31.968C80.6388 33.2267 80.0948 34.144 79.4548 34.72C78.8361 35.296 77.9401 35.584 76.7667 35.584Z" fill="#E1A561"/>
</svg>
